<svg xmlns="http://www.w3.org/2000/svg" width="21" height="16" fill="none"><path fill="#fff" fill-rule="evenodd" d="M8.2 3.478c.949.677 1.93 1.42 2.873 2.135.951.724 1.917 1.42 2.841 2.12-1.657 1.114-3.32 2.189-5 3.287-.235.154-.46.34-.714.457v-8ZM.587 4.63v6.757c0 .795-.038 1.546.142 2.103.18.552.503.997.885 1.319.396.333.855.576 1.531.634.637.054 1.382.017 2.116.017h10.657c.716 0 1.442.05 2.132-.017 1.219-.117 2.059-.928 2.383-1.986.177-.573.143-1.324.143-2.102V4.597c0-.801.05-1.491-.143-2.103a2.882 2.882 0 0 0-.867-1.335c-.388-.334-.837-.591-1.516-.65C17.38.45 16.63.49 15.934.49H5.277c-.705 0-1.517-.039-2.163.017-1.2.105-2.095.952-2.4 2.003C.54 3.106.587 3.868.587 4.63Z" clip-rule="evenodd"/></svg>