<svg xmlns="http://www.w3.org/2000/svg" width="24" height="15" fill="none"><path fill="#fff" d="M23.767 12.925c-.061-.11-.444-.997-2.284-2.82-1.927-1.907-1.668-1.597.653-4.896 1.413-2.01 1.978-3.236 1.8-3.76-.167-.5-1.207-.369-1.207-.369l-3.456.022s-.256-.037-.447.084c-.185.12-.305.396-.305.396s-.547 1.555-1.278 2.877c-1.54 2.79-2.156 2.937-2.408 2.764-.585-.404-.438-1.623-.438-2.488 0-2.704.384-3.831-.749-4.123-.377-.096-.653-.16-1.614-.171-1.234-.014-2.28.004-2.87.313-.394.205-.697.664-.512.69.229.032.746.148 1.021.547.355.514.342 1.67.342 1.67s.204 3.183-.476 3.578c-.467.272-1.107-.282-2.48-2.814-.703-1.296-1.234-2.73-1.234-2.73s-.103-.267-.285-.41c-.222-.173-.532-.228-.532-.228l-3.286.022s-.494.015-.675.244c-.16.204-.013.624-.013.624s2.574 6.421 5.486 9.659c2.673 2.967 5.706 2.773 5.706 2.773H13.6s.416-.05.627-.293c.196-.224.189-.645.189-.645s-.028-1.967.83-2.257c.843-.285 1.927 1.902 3.076 2.744.868.636 1.528.496 1.528.496l3.072-.045s1.607-.106.845-1.454Z"/></svg>