<svg xmlns="http://www.w3.org/2000/svg" width="18" height="18" fill="none"><path fill="#fff" d="M10.674 10.46c-1.335 1.377-1.432 3.095-1.548 6.86 3.51 0 5.932-.012 7.183-1.227 1.214-1.25 1.226-3.788 1.226-7.182-3.764.121-5.482.212-6.86 1.548ZM.535 8.91c0 3.395.012 5.933 1.227 7.183 1.25 1.215 3.673 1.227 7.182 1.227-.121-3.764-.212-5.483-1.548-6.86C6.018 9.122 4.299 9.025.536 8.91ZM8.945.32C5.44.32 3.011.332 1.761 1.546.547 2.797.535 5.335.535 8.73c3.764-.122 5.483-.213 6.86-1.548C8.733 5.802 8.83 4.084 8.946.32Zm1.73 6.86C9.338 5.803 9.241 4.085 9.125.32c3.51 0 5.932.012 7.183 1.226 1.214 1.251 1.226 3.789 1.226 7.183-3.764-.122-5.482-.213-6.86-1.548Z"/></svg>