<svg xmlns="http://www.w3.org/2000/svg" width="20" height="21" fill="none"><path fill="#fff" d="M9.967.798c-5.508 0-9.97 4.472-9.97 10 0 2.174.708 4.223 1.908 5.87L.644 20.393l3.846-1.242c1.57 1.056 3.477 1.646 5.508 1.646 5.507 0 10-4.472 10-10-.031-5.528-4.523-10-10.031-10Zm5.846 14.13c-.246.683-1.446 1.336-1.97 1.398-.522.062-.522.435-3.507-.715-2.954-1.18-4.83-4.192-4.984-4.41-.154-.186-1.2-1.583-1.2-3.012 0-1.428.738-2.143 1.015-2.422.277-.28.585-.373.77-.373.184 0 .4.031.553.031.185 0 .4-.093.646.497s.831 2.019.893 2.174c.061.155.123.31.03.497-.092.186-.154.31-.277.497-.153.155-.307.372-.43.497-.154.155-.308.31-.123.59.184.28.769 1.242 1.63 2.018 1.108.994 2.062 1.305 2.339 1.46.277.155.461.124.615-.062.185-.187.739-.839.923-1.15.185-.279.4-.248.646-.154.277.093 1.693.807 2 .962.277.155.493.218.554.342.093.062.093.652-.123 1.335Z"/></svg>