<svg xmlns="http://www.w3.org/2000/svg" width="95" height="22" fill="none"><path fill="#fff" d="m80.126 21.7 5.917-7.116-5.7-8.175h3.094c1.52 0 1.303.625 3.936 4.4l.896 1.303L91.85 6.6c.109-.163.299-.217.462-.217h1.846l-5.375 6.464L95 21.7h-2.904c-1.927.027-1.575-.76-4.126-4.373l-1.412-2.01-4.098 6.138c-.109.163-.271.217-.489.217h-1.845v.028ZM73.909 22c-2.09 0-4.261-.598-5.619-2.282-1.275-1.575-1.737-3.53-1.791-5.513-.027-2.471.597-4.454 1.9-5.948 1.303-1.493 3.094-2.227 5.374-2.227 1.086 0 2.063.163 2.905.49.841.325 1.493.76 2.008 1.33.516.57.896 1.222 1.14 1.955a8.5 8.5 0 0 1 .407 2.418c0 .461-.027.896-.108 1.276 0 .054-.055.082-.082.082H70.49c.054 2.471.434 4.236 1.14 5.35.706 1.113 1.873 1.656 3.529 1.656 1.71 0 3.04-.488 4.343-1.493.217.19.46.706 0 1.113C78.306 21.294 75.97 22 73.909 22Zm-3.447-9.153 6.188-.461c.028-2.065-.054-5.46-2.795-5.46-2.877 0-3.312 3.721-3.393 5.921ZM64.115 19.934v-8.962c0-3.069-1.167-4.916-4.18-4.916-2.117 0-4.126 1.005-5.564 2.499 0-1.195-.19-2.173-1.358-2.173h-2.442l.135 1.738v11.787l-.135 1.766h3.962l-.135-1.766V9.37c1.14-.87 2.198-1.304 3.718-1.304 1.928 0 2.308 1.792 2.308 3.775v7.768c0 1.303.298 2.064 1.384 2.064h2.443l-.136-1.739ZM46.744 1.955c0 1.087-.895 1.956-1.981 1.956s-1.981-.87-1.981-1.956C42.782.87 43.677 0 44.763 0s1.981.87 1.981 1.955ZM42.915 6.383l.135 1.738v11.787l-.135 1.765h3.962l-.135-1.765V8.42c0-1.168-.217-2.065-1.385-2.065h-2.442v.028ZM39.166 19.934v-8.962c0-3.096-1.168-4.916-4.18-4.916-2.525 0-4.235 1.277-5.592 2.716-.489-1.711-1.683-2.716-3.963-2.716-2.144 0-3.881 1.005-5.293 2.526v-.027c0-1.195-.19-2.173-1.357-2.173h-2.443l.136 1.738v11.787l-.136 1.766h3.963l-.136-1.766V9.37c1.113-.924 2.443-1.304 3.502-1.304 2.09 0 2.307 2.145 2.307 3.775v8.066l-.136 1.766h3.963l-.135-1.766V9.37a5.598 5.598 0 0 1 3.528-1.304c2.171 0 2.307 2.363 2.307 3.775v7.768c0 1.466.407 2.064 1.385 2.064h2.442l-.163-1.739ZM6.324 21.999c-1.818 0-4.505-.516-6.134-1.44.299-.679.869-1.195 1.683-.76a9.594 9.594 0 0 0 4.56 1.114c2.334 0 4.044-1.304 3.936-3.667C10.124 12.303-.027 11.57 0 5.622.027 1.249 3.963 0 7.736 0c1.818 0 3.61.353 5.374 1.06-.298.705-.814 1.303-1.71.868a8.659 8.659 0 0 0-3.827-.869c-2.307 0-3.61 1.25-3.61 3.096-.027 4.726 10.287 5.432 10.477 11.57C14.55 20.206 10.803 22 6.324 22Z"/></svg>