<svg xmlns="http://www.w3.org/2000/svg" width="695" height="984" fill="none"><path fill="#1F3834" d="M104.94 676.271s40.624 144.149 152.341 201.537C368.659 935.197 412.33 984 412.33 984s-36.901-164.032-164.528-236.332c-80.572-45.64-143.2-70.945-143.2-70.945"/><path fill="#1F3834" fill-rule="evenodd" d="M694.516.622C665.93.226 640.528 0 619.172 0c-184.247 0-339.028 32.133-441.99 108.62C61.012 195.516-1.984 353.014.048 480.643c1.016 65.624 16.934 134.417 71.124 194.61-10.16-35.754-17.95-64.719-18.627-105.904-1.017-58.383 8.805-112.693 26.417-159.762 37.934-114.503 166.297-226.744 395.251-233.532 60.507-1.735 148.291 2.117 220.303 5.64V.622Z" clip-rule="evenodd"/></svg>