<svg xmlns="http://www.w3.org/2000/svg" width="82" height="19" fill="none"><path fill="#fff" d="m69.161 18.742 5.108-6.145-4.92-7.06h2.67c1.313 0 1.125.539 3.398 3.8l.773 1.125 3.092-4.761c.094-.141.258-.188.399-.188h1.593l-4.64 5.582L82 18.742h-2.507c-1.663.023-1.359-.657-3.561-3.776l-1.218-1.736-3.538 5.301c-.094.14-.234.188-.422.188h-1.593v.023ZM63.794 19.001c-1.804 0-3.678-.516-4.85-1.97-1.1-1.36-1.499-3.05-1.546-4.762-.023-2.134.516-3.846 1.64-5.136 1.125-1.29 2.671-1.924 4.639-1.924.937 0 1.78.141 2.507.422.726.282 1.288.657 1.734 1.15.445.492.773 1.055.983 1.689.211.633.329 1.337.352 2.087 0 .399-.023.774-.094 1.103 0 .046-.047.07-.07.07h-8.247c.047 2.134.375 3.66.984 4.62.61.962 1.617 1.432 3.046 1.432 1.476 0 2.624-.423 3.748-1.29.188.164.399.61 0 .961-1.03.938-3.045 1.548-4.826 1.548Zm-2.975-7.904 5.341-.4c.024-1.782-.046-4.714-2.413-4.714-2.483 0-2.858 3.214-2.928 5.114ZM55.34 17.218v-7.74c0-2.65-1.007-4.246-3.608-4.246-1.827 0-3.56.868-4.803 2.158 0-1.032-.163-1.876-1.17-1.876h-2.11l.118 1.5v10.18l-.117 1.525h3.42l-.117-1.524V8.094c.984-.75 1.898-1.126 3.21-1.126 1.663 0 1.991 1.548 1.991 3.26v6.709c0 1.125.258 1.782 1.195 1.782h2.108l-.117-1.5ZM40.347 1.69c0 .939-.773 1.69-1.71 1.69-.937 0-1.71-.751-1.71-1.69 0-.938.773-1.689 1.71-1.689.937 0 1.71.751 1.71 1.69ZM37.041 5.513l.117 1.501v10.18l-.117 1.525h3.42l-.117-1.525V7.272c0-1.008-.187-1.782-1.194-1.782H37.04v.023ZM33.806 17.218v-7.74c0-2.674-1.008-4.246-3.608-4.246-2.179 0-3.655 1.103-4.826 2.346-.422-1.478-1.453-2.346-3.421-2.346-1.85 0-3.35.868-4.569 2.182V7.39c0-1.032-.164-1.876-1.17-1.876h-2.11l.118 1.5v10.18l-.118 1.525h3.421l-.117-1.524V8.094c.96-.798 2.109-1.126 3.022-1.126 1.804 0 1.992 1.853 1.992 3.26v6.967l-.118 1.524h3.421l-.117-1.524V8.094a4.83 4.83 0 0 1 3.045-1.126c1.875 0 1.992 2.04 1.992 3.26v6.709c0 1.266.351 1.782 1.195 1.782h2.108l-.14-1.5ZM5.459 19c-1.57 0-3.89-.445-5.295-1.242.258-.587.75-1.032 1.453-.657a8.276 8.276 0 0 0 3.936.962c2.014 0 3.49-1.126 3.397-3.167C8.739 10.627-.023 9.994 0 4.856.023 1.08 3.42.002 6.677.002c1.57 0 3.116.305 4.639.915-.258.61-.703 1.126-1.476.75a7.47 7.47 0 0 0-3.303-.75C4.545.916 3.42 1.996 3.42 3.59c-.024 4.082 8.879 4.691 9.043 9.992.094 3.87-3.14 5.419-7.005 5.419Z"/></svg>