<svg xmlns="http://www.w3.org/2000/svg" width="103" height="16" fill="none"><path fill="#fff" fill-rule="evenodd" d="M90.826 4.496 90.3 6.612a5.753 5.753 0 0 0-1.117-.133c-.46 0-.92.066-1.25.199V16l-2.497-.529V5.157a11.84 11.84 0 0 1 4.075-.727c.526 0 .986.066 1.315.066Zm-9.333 3.57v6.215c-.591.33-2.103.727-3.614.727-3.023 0-4.535-1.19-4.535-3.24 0-2.776 2.826-3.305 5.85-3.504v-.528c0-1.058-.724-1.455-1.907-1.455-.92 0-2.103.33-2.826.595l-.657-1.719c.854-.33 2.234-.727 3.68-.727 2.564 0 4.01.991 4.01 3.636Zm-28.654.926c.066.264.066.595 0 .86l-6.44.859c.197 1.454 1.314 2.248 2.76 2.248.986 0 2.103-.265 2.76-.662l.723 1.918c-.854.463-2.234.727-3.68.727-3.286 0-5.06-2.182-5.06-5.29 0-3.107 1.708-5.288 4.665-5.288 2.76 0 4.272 1.85 4.272 4.628ZM39.367 4.628h1.905v1.917h-1.905v5.025c0 .794.525 1.124 1.183 1.124.262 0 .525-.066.722-.132v2.116c-.328.066-.985.198-1.577.198-1.906 0-2.826-1.058-2.826-3.173V6.545H35.62V4.628h1.25V2.38l2.497-.727v2.975Zm-19.06.265a5.445 5.445 0 0 1 2.104-.463c2.366 0 3.68 1.19 3.68 3.438v6.876h-2.497V8.132c0-1.124-.658-1.653-1.84-1.653-.526 0-1.052.133-1.446.397v7.934H17.81V0h2.498v4.893Zm49.817 2.909v7.008h-2.498V8c0-.992-.657-1.587-1.643-1.587-.657 0-1.117.199-1.511.53v7.8h-2.563V7.869c0-.926-.658-1.455-1.775-1.455-.591 0-1.051.066-1.38.265v8.066h-2.497V5.157c1.051-.397 2.366-.727 3.746-.727 1.643 0 2.629.529 3.22 1.058a5.909 5.909 0 0 1 3.352-1.058c2.234 0 3.549 1.322 3.549 3.372Zm-66.18 3.041c.196.727.262 1.653.262 1.653h.066s.131-.926.328-1.653l1.643-6.215h2.3l1.644 6.215c.197.727.328 1.653.328 1.653s.066-.926.263-1.653l1.446-6.215h2.563L11.83 14.744H9.2L7.69 8.992c-.198-.661-.264-1.52-.264-1.52h-.065s-.132.859-.329 1.52l-1.511 5.752H2.89L0 4.628h2.563l1.38 6.215Zm28.456 3.9h-2.497V4.629H32.4v10.116Zm63.88-5.685h.066l3.286-4.43h2.958l-3.615 4.76 3.812 5.356h-2.826l-3.615-5.091h-.066v5.09h-2.497V0h2.497v9.058Zm-20.504 2.578c0 .926.723 1.521 2.037 1.521.526 0 1.183-.066 1.446-.198V9.85c-1.84.066-3.483.265-3.483 1.785ZM46.267 9.124l4.206-.595c0-1.52-.788-2.248-1.906-2.248-1.314 0-2.234.992-2.3 2.843Z" clip-rule="evenodd" opacity=".2"/></svg>