<svg xmlns="http://www.w3.org/2000/svg" width="21" height="18" fill="none"><path fill="#fff" fill-rule="evenodd" d="M20.558 1.686c-.105.475-.214.95-.314 1.426l-1.936 9.244c-.278 1.327-.553 2.655-.838 3.98a2.01 2.01 0 0 1-.184.5c-.217.417-.575.574-1.016.433a1.994 1.994 0 0 1-.573-.283c-1.437-1.063-2.867-2.135-4.3-3.205-.051-.039-.104-.076-.166-.12-.048.041-.092.077-.133.117-.74.718-1.48 1.437-2.218 2.157-.22.215-.47.344-.799.324.027-.415.052-.816.08-1.217l.179-2.521c.01-.132.043-.268.026-.396-.064-.485.203-.766.529-1.062 2.652-2.411 5.29-4.837 7.933-7.258.038-.036.089-.066.111-.11.042-.081.068-.171.1-.258-.09-.025-.188-.089-.266-.069a1.63 1.63 0 0 0-.461.199 9019.563 9019.563 0 0 0-10.328 6.591c-.096.062-.18.096-.303.056-1.46-.47-2.924-.93-4.384-1.4a1.846 1.846 0 0 1-.503-.25C.51 8.36.476 8.06.73 7.82c.186-.176.411-.333.647-.428 1.23-.499 2.468-.976 3.704-1.459C9.777 4.098 14.472 2.263 19.17.432c.15-.058.313-.097.472-.11.423-.032.736.201.865.62.015.05.035.097.052.146v.598Z" clip-rule="evenodd"/></svg>